<?xml version="1.0" encoding="utf-8"?>
<!-- Generator: Adobe Illustrator 16.0.0, SVG Export Plug-In . SVG Version: 6.00 Build 0)  -->
<!DOCTYPE svg PUBLIC "-//W3C//DTD SVG 1.1//EN" "http://www.w3.org/Graphics/SVG/1.1/DTD/svg11.dtd">
<svg version="1.1" id="Layer_1" xmlns="http://www.w3.org/2000/svg" xmlns:xlink="http://www.w3.org/1999/xlink" x="0px" y="0px"
	 width="363px" height="420px" viewBox="0 0 363 420" enable-background="new 0 0 363 420" xml:space="preserve">
<linearGradient id="SVGID_1_" gradientUnits="userSpaceOnUse" x1="274.2861" y1="159.2695" x2="83.992" y2="295.5032">
	<stop  offset="0" style="stop-color:#CE5845"/>
	<stop  offset="1" style="stop-color:#D6492A"/>
</linearGradient>
<path fill="url(#SVGID_1_)" d="M246.969,358.18c-69.272,0-125.428-56.156-125.428-125.428c0-17.178,3.457-33.546,9.707-48.455
	c0.136-0.604,0.287-1.19,0.475-1.724c1.403-3.972,3.633-8.3,5.948-11.896c0.705-1.095,1.811-3.008,3.157-4.77
	c1.61-2.107,3.565-3.996,5.61-3.996c2.82,0,4.429,3.743,6.261,6.261c8.103,11.138,19.778,19.488,38.82,15.967
	c5.257-0.972,12.401-3.479,19.41-1.878c7.754,1.77,13.871,6.461,18.785,11.271c6.904,6.759,10.977,18.088,24.419,15.34
	c3.428-0.7,6.698-6.165,9.393-10.331c5.926-9.162,6.029-16.432,10.331-27.237c1.888-4.742,5.839-10.938,2.505-16.906
	c-2.511-4.494-9.052-5.656-14.089-8.453c-10.575-5.871-18.96-17.861-29.114-26.924c-2.89-2.579-6.531-5.469-7.201-8.453
	c-0.109-0.485-0.176-0.966-0.226-1.444c-0.521-5,1.81-9.565-1.027-13.583c-2.677-3.793-9.063-3.513-14.088-5.322
	c-1.725-0.621-3.431-1.525-5.158-2.614c-1.692-1.067-3.404-2.312-5.173-3.647c-2.981-2.25-7.674-4.713-8.454-8.139
	c-0.694-3.059,1.06-6.631,1.566-10.019c0.359-2.406,0.513-4.923,0.684-7.435v-0.001c0.138-2.031,0.287-4.06,0.568-6.025
	c0.569-3.976,2.838-8.489,0-11.584c-5.615-1.597-9.099,3.683-13.148,4.696c-2.778,0.695-5.283,0.392-7.827,1.252
	c-4.636,1.568-8.212,4.315-11.271,6.888c-2.406,2.024-4.625,5.307-7.039,7.181c-0.014,0.002-0.028,0.005-0.042,0.008
	c-1.511,0.274-3.012,0.576-4.509,0.891c-0.199,0.042-0.397,0.086-0.597,0.129c-0.728,0.156-1.458,0.307-2.182,0.473
	c-0.713,0.164-1.421,0.34-2.13,0.512c-0.521,0.126-1.042,0.25-1.561,0.381c-0.691,0.175-1.379,0.359-2.067,0.543
	c-0.532,0.143-1.063,0.284-1.593,0.432c-0.681,0.189-1.359,0.384-2.037,0.582c-0.53,0.155-1.059,0.313-1.587,0.473
	c-0.674,0.204-1.347,0.411-2.017,0.624c-0.521,0.165-1.041,0.336-1.56,0.506c-0.673,0.221-1.347,0.441-2.016,0.671
	c-0.499,0.171-0.993,0.349-1.489,0.524c-0.684,0.242-1.369,0.48-2.048,0.73c-0.157,0.058-0.311,0.12-0.468,0.178
	c-1.6,0.595-3.186,1.218-4.762,1.861c-0.48,0.196-0.962,0.388-1.44,0.588c-0.647,0.271-1.289,0.551-1.931,0.83
	c-0.499,0.216-0.999,0.432-1.495,0.654c-0.632,0.282-1.262,0.57-1.89,0.86c-0.5,0.23-0.999,0.463-1.495,0.698
	c-0.622,0.294-1.242,0.592-1.86,0.894c-0.495,0.242-0.988,0.489-1.481,0.736c-0.612,0.307-1.226,0.615-1.834,0.929
	c-0.488,0.253-0.973,0.512-1.458,0.77c-0.607,0.322-1.217,0.641-1.82,0.971c-0.441,0.24-0.876,0.49-1.315,0.735
	c-1.154,0.644-2.3,1.302-3.437,1.973c-0.476,0.281-0.953,0.557-1.425,0.842c-0.572,0.346-1.139,0.7-1.707,1.052
	c-0.482,0.299-0.965,0.598-1.444,0.902c-0.56,0.355-1.115,0.716-1.67,1.078c-0.479,0.313-0.958,0.626-1.434,0.944
	c-0.548,0.365-1.095,0.734-1.639,1.106c-0.476,0.326-0.95,0.655-1.422,0.986c-0.536,0.375-1.07,0.749-1.601,1.129
	c-0.48,0.344-0.955,0.694-1.431,1.043c-0.515,0.377-1.032,0.753-1.542,1.137c-0.52,0.39-1.032,0.789-1.547,1.186
	c-0.855,0.659-1.703,1.325-2.545,2c-0.509,0.408-1.021,0.814-1.524,1.228c-0.479,0.393-0.95,0.793-1.423,1.192
	c-0.471,0.395-0.942,0.789-1.408,1.189c-0.473,0.407-0.941,0.818-1.409,1.229c-0.459,0.404-0.917,0.809-1.372,1.218
	c-0.462,0.415-0.921,0.833-1.378,1.252c-0.456,0.419-0.909,0.842-1.36,1.266c-0.445,0.418-0.89,0.837-1.33,1.26
	c-0.462,0.444-0.919,0.894-1.377,1.344c-0.419,0.413-0.842,0.824-1.258,1.241c-0.521,0.524-1.034,1.056-1.548,1.586
	c-0.543,0.561-1.084,1.125-1.619,1.693c-0.604,0.642-1.208,1.284-1.802,1.936c-0.371,0.406-0.734,0.82-1.101,1.229
	c-0.456,0.51-0.913,1.021-1.363,1.536c-0.38,0.436-0.755,0.876-1.13,1.316c-0.428,0.501-0.855,1.004-1.277,1.511
	c-0.374,0.447-0.745,0.898-1.113,1.35c-0.419,0.513-0.835,1.03-1.248,1.549c-0.357,0.448-0.714,0.897-1.066,1.35
	c-0.425,0.546-0.845,1.097-1.264,1.648c-0.328,0.432-0.658,0.862-0.982,1.297c-0.483,0.649-0.957,1.305-1.431,1.961
	c-0.249,0.345-0.503,0.686-0.75,1.033c-0.692,0.976-1.374,1.961-2.046,2.952c-0.267,0.394-0.525,0.792-0.788,1.187
	c-0.424,0.637-0.847,1.274-1.262,1.917c-0.291,0.449-0.575,0.903-0.861,1.356c-0.379,0.601-0.757,1.203-1.129,1.809
	c-0.287,0.468-0.57,0.938-0.853,1.408c-0.363,0.605-0.723,1.214-1.079,1.825c-0.273,0.468-0.544,0.937-0.813,1.408
	c-0.363,0.638-0.721,1.281-1.076,1.925c-0.247,0.447-0.496,0.893-0.739,1.342c-0.404,0.749-0.799,1.503-1.192,2.259
	c-0.182,0.349-0.368,0.695-0.547,1.044c-0.557,1.091-1.102,2.188-1.636,3.293c-0.167,0.346-0.327,0.697-0.492,1.044
	c-0.371,0.783-0.741,1.567-1.1,2.357c-0.205,0.448-0.402,0.9-0.603,1.351c-0.311,0.7-0.619,1.4-0.92,2.105
	c-0.205,0.478-0.405,0.957-0.605,1.437c-0.288,0.692-0.571,1.386-0.851,2.083c-0.193,0.482-0.385,0.965-0.574,1.449
	c-0.28,0.72-0.554,1.443-0.824,2.168c-0.171,0.459-0.345,0.917-0.512,1.378c-0.299,0.823-0.588,1.651-0.874,2.479
	c-0.126,0.366-0.257,0.73-0.381,1.097c-0.4,1.188-0.789,2.382-1.163,3.582c-0.086,0.275-0.166,0.554-0.25,0.831
	c-0.287,0.936-0.568,1.875-0.838,2.818c-0.128,0.446-0.249,0.896-0.374,1.343c-0.217,0.784-0.431,1.569-0.637,2.357
	c-0.127,0.488-0.25,0.979-0.374,1.469c-0.191,0.76-0.377,1.521-0.558,2.286c-0.118,0.498-0.234,0.997-0.347,1.497
	c-0.177,0.78-0.345,1.562-0.511,2.346c-0.101,0.479-0.204,0.958-0.301,1.438c-0.175,0.87-0.34,1.743-0.501,2.617
	c-0.073,0.394-0.15,0.787-0.221,1.182c-0.225,1.267-0.437,2.538-0.632,3.814c-0.026,0.171-0.048,0.344-0.074,0.515
	c-0.166,1.109-0.323,2.222-0.467,3.337c-0.057,0.442-0.106,0.886-0.16,1.33c-0.104,0.854-0.204,1.708-0.293,2.566
	c-0.053,0.501-0.1,1.004-0.148,1.507c-0.078,0.811-0.151,1.623-0.217,2.436c-0.042,0.517-0.082,1.035-0.119,1.554
	c-0.059,0.82-0.109,1.643-0.156,2.466c-0.028,0.503-0.059,1.005-0.082,1.508c-0.042,0.893-0.074,1.788-0.102,2.684
	c-0.014,0.433-0.032,0.863-0.042,1.296c-0.031,1.326-0.05,2.655-0.05,3.99c0,1.504,0.023,3.004,0.063,4.499
	c0.013,0.473,0.037,0.944,0.054,1.417c0.037,1.022,0.074,2.045,0.129,3.063c0.029,0.549,0.069,1.094,0.104,1.642
	c0.061,0.942,0.123,1.887,0.199,2.825c0.045,0.561,0.098,1.119,0.148,1.677c0.085,0.93,0.173,1.856,0.273,2.78
	c0.059,0.546,0.123,1.091,0.187,1.635c0.111,0.943,0.23,1.887,0.357,2.825c0.069,0.513,0.141,1.022,0.214,1.533
	c0.144,0.986,0.296,1.973,0.458,2.953c0.074,0.452,0.146,0.904,0.225,1.354c0.185,1.075,0.383,2.147,0.59,3.216
	c0.067,0.35,0.131,0.7,0.201,1.05c0.252,1.262,0.519,2.518,0.799,3.767c0.035,0.153,0.066,0.308,0.1,0.46
	c0.866,3.814,1.879,7.571,3.004,11.28c0.601,1.98,1.225,3.95,1.897,5.898c0.008,0.022,0.016,0.045,0.024,0.067
	c0.47,1.359,0.958,2.713,1.463,4.057c0.031,0.081,0.062,0.163,0.093,0.245c0.488,1.294,0.992,2.58,1.511,3.858
	c0.038,0.093,0.076,0.187,0.114,0.279c0.524,1.282,1.063,2.558,1.619,3.825c0.03,0.067,0.06,0.136,0.089,0.203
	c0.58,1.318,1.176,2.627,1.789,3.928c0.002,0.005,0.005,0.009,0.006,0.014C62.053,349.518,119,388.26,185.002,388.26
	c39.851,0,76.401-14.121,104.925-37.633C276.526,355.513,262.059,358.18,246.969,358.18z"/>
<linearGradient id="SVGID_2_" gradientUnits="userSpaceOnUse" x1="325.6846" y1="144.6494" x2="227.2938" y2="331.7">
	<stop  offset="0" style="stop-color:#FFEBA9"/>
	<stop  offset="0.5" style="stop-color:#FECC00"/>
	<stop  offset="1" style="stop-color:#F7AF00"/>
</linearGradient>
<path fill="url(#SVGID_2_)" d="M349.355,223.187c0-16.52-2.506-32.956-7.354-48.647c2.12,9.287,3.188,18.842,3.188,28.603
	c0,70.486-57.345,127.831-127.831,127.831c-23.52,0-46.354-6.396-66.317-18.536c23.801,28.668,58.52,45.022,95.926,45.022
	c14.632,0,28.961-2.512,42.595-7.467C327.563,318.624,349.355,272.41,349.355,223.187z"/>
<linearGradient id="SVGID_3_" gradientUnits="userSpaceOnUse" x1="357.5029" y1="180.3623" x2="153.1532" y2="275.5093">
	<stop  offset="0" style="stop-color:#FFF6AD"/>
	<stop  offset="0.5" style="stop-color:#FFEC00"/>
	<stop  offset="1" style="stop-color:#FFD700"/>
</linearGradient>
<path fill="url(#SVGID_3_)" d="M338.561,169.761c1.107,6.162,1.664,12.434,1.664,18.774c0,58.297-47.428,105.725-105.724,105.725
	c-24.389,0-48.187-8.507-67.012-23.951c-13.572-11.135-24.248-25.577-30.872-41.765c-4.651-11.369-6.879-22.451-7.222-35.93
	l-0.002-0.064l0.01-0.064c0.102-0.662,0.188-1.402,0.273-2.188c-4.923,13.579-7.415,27.83-7.415,42.455
	c0,27.588,8.813,53.696,25.499,75.561l0.303-0.328l0.51,0.336c20.455,13.404,44.24,20.49,68.786,20.49
	c69.294,0,125.668-56.375,125.668-125.668C343.027,191.711,341.53,180.542,338.561,169.761z"/>
</svg>
